<mxfile host="app.diagrams.net" modified="2022-04-07T08:29:09.476Z" agent="5.0 (Macintosh; Intel Mac OS X 10_15_7) AppleWebKit/537.36 (KHTML, like Gecko) Chrome/100.0.4896.60 Safari/537.36" etag="RkhcadfTStzoXRh6O0hZ" version="17.4.0" type="github">
  <diagram id="jIUldm5I0Oqk9Oj3hHHX" name="Page-1">
    <mxGraphModel dx="1939" dy="737" grid="1" gridSize="10" guides="1" tooltips="1" connect="1" arrows="1" fold="1" page="1" pageScale="1" pageWidth="827" pageHeight="1169" math="0" shadow="0">
      <root>
        <mxCell id="0" />
        <mxCell id="1" parent="0" />
        <mxCell id="R6yvzvd_kbyUxVRJHQfj-18" value="" style="rounded=1;whiteSpace=wrap;html=1;dashed=1;" vertex="1" parent="1">
          <mxGeometry x="-10" y="410" width="450" height="410" as="geometry" />
        </mxCell>
        <mxCell id="R6yvzvd_kbyUxVRJHQfj-17" value="" style="rounded=1;whiteSpace=wrap;html=1;dashed=1;" vertex="1" parent="1">
          <mxGeometry x="480" y="410" width="220" height="410" as="geometry" />
        </mxCell>
        <mxCell id="R6yvzvd_kbyUxVRJHQfj-3" value="Config Data" style="shape=cylinder3;whiteSpace=wrap;html=1;boundedLbl=1;backgroundOutline=1;size=15;" vertex="1" parent="1">
          <mxGeometry x="260" y="690" width="60" height="80" as="geometry" />
        </mxCell>
        <mxCell id="R6yvzvd_kbyUxVRJHQfj-4" value="Write Config" style="shape=parallelogram;perimeter=parallelogramPerimeter;whiteSpace=wrap;html=1;fixedSize=1;" vertex="1" parent="1">
          <mxGeometry x="170" y="571" width="120" height="60" as="geometry" />
        </mxCell>
        <mxCell id="R6yvzvd_kbyUxVRJHQfj-5" value="Client Site" style="rounded=1;whiteSpace=wrap;html=1;" vertex="1" parent="1">
          <mxGeometry x="10" y="511" width="120" height="60" as="geometry" />
        </mxCell>
        <mxCell id="R6yvzvd_kbyUxVRJHQfj-6" value="Read Report" style="shape=parallelogram;perimeter=parallelogramPerimeter;whiteSpace=wrap;html=1;fixedSize=1;container=1;" vertex="1" parent="1">
          <mxGeometry x="240" y="460" width="129" height="60" as="geometry" />
        </mxCell>
        <mxCell id="R6yvzvd_kbyUxVRJHQfj-33" value="Ctrip Serveless" style="rounded=0;whiteSpace=wrap;html=1;fontSize=12;" vertex="1" parent="R6yvzvd_kbyUxVRJHQfj-6">
          <mxGeometry x="39" y="40" width="90" height="20" as="geometry" />
        </mxCell>
        <mxCell id="R6yvzvd_kbyUxVRJHQfj-7" value="Reports" style="shape=cylinder3;whiteSpace=wrap;html=1;boundedLbl=1;backgroundOutline=1;size=15;" vertex="1" parent="1">
          <mxGeometry x="550" y="690" width="60" height="80" as="geometry" />
        </mxCell>
        <mxCell id="R6yvzvd_kbyUxVRJHQfj-8" value="Run Lighthouse" style="shape=parallelogram;perimeter=parallelogramPerimeter;whiteSpace=wrap;html=1;fixedSize=1;" vertex="1" parent="1">
          <mxGeometry x="520" y="555" width="120" height="60" as="geometry" />
        </mxCell>
        <mxCell id="R6yvzvd_kbyUxVRJHQfj-9" value="" style="curved=1;endArrow=classic;html=1;rounded=0;strokeColor=#007FFF;strokeWidth=2;entryX=0;entryY=0.5;entryDx=0;entryDy=0;exitX=0.75;exitY=0;exitDx=0;exitDy=0;" edge="1" parent="1" source="R6yvzvd_kbyUxVRJHQfj-34" target="R6yvzvd_kbyUxVRJHQfj-4">
          <mxGeometry width="50" height="50" relative="1" as="geometry">
            <mxPoint x="130" y="541" as="sourcePoint" />
            <mxPoint x="250" y="590" as="targetPoint" />
            <Array as="points" />
          </mxGeometry>
        </mxCell>
        <mxCell id="R6yvzvd_kbyUxVRJHQfj-10" value="" style="curved=1;endArrow=classic;html=1;rounded=0;exitX=0.408;exitY=1;exitDx=0;exitDy=0;strokeColor=#007FFF;entryX=0.5;entryY=0;entryDx=0;entryDy=0;entryPerimeter=0;strokeWidth=2;exitPerimeter=0;" edge="1" parent="1" source="R6yvzvd_kbyUxVRJHQfj-4" target="R6yvzvd_kbyUxVRJHQfj-3">
          <mxGeometry width="50" height="50" relative="1" as="geometry">
            <mxPoint x="290" y="620" as="sourcePoint" />
            <mxPoint x="390" y="669" as="targetPoint" />
            <Array as="points" />
          </mxGeometry>
        </mxCell>
        <mxCell id="R6yvzvd_kbyUxVRJHQfj-11" value="Scheduled Job" style="shape=parallelogram;perimeter=parallelogramPerimeter;whiteSpace=wrap;html=1;fixedSize=1;container=1;" vertex="1" parent="1">
          <mxGeometry x="520" y="460" width="120" height="60" as="geometry" />
        </mxCell>
        <mxCell id="R6yvzvd_kbyUxVRJHQfj-28" value="Lamda" style="rounded=0;whiteSpace=wrap;html=1;fontSize=12;" vertex="1" parent="R6yvzvd_kbyUxVRJHQfj-11">
          <mxGeometry x="49" y="40" width="70" height="20" as="geometry" />
        </mxCell>
        <mxCell id="R6yvzvd_kbyUxVRJHQfj-14" value="" style="curved=1;endArrow=classic;html=1;rounded=0;strokeColor=#B20000;exitX=0.5;exitY=1;exitDx=0;exitDy=0;entryX=0.5;entryY=0;entryDx=0;entryDy=0;fillColor=#e51400;entryPerimeter=0;strokeWidth=2;" edge="1" parent="1" source="R6yvzvd_kbyUxVRJHQfj-8" target="R6yvzvd_kbyUxVRJHQfj-7">
          <mxGeometry width="50" height="50" relative="1" as="geometry">
            <mxPoint x="331.98" y="747.04" as="sourcePoint" />
            <mxPoint x="540" y="595" as="targetPoint" />
            <Array as="points">
              <mxPoint x="580" y="650" />
            </Array>
          </mxGeometry>
        </mxCell>
        <mxCell id="R6yvzvd_kbyUxVRJHQfj-15" value="" style="curved=1;endArrow=classic;html=1;rounded=0;strokeColor=#2D7600;exitX=0;exitY=0.5;exitDx=0;exitDy=0;exitPerimeter=0;entryX=1;entryY=0.5;entryDx=0;entryDy=0;fillColor=#60a917;strokeWidth=2;" edge="1" parent="1" source="R6yvzvd_kbyUxVRJHQfj-7" target="R6yvzvd_kbyUxVRJHQfj-6">
          <mxGeometry width="50" height="50" relative="1" as="geometry">
            <mxPoint x="390" y="560" as="sourcePoint" />
            <mxPoint x="440" y="510" as="targetPoint" />
            <Array as="points" />
          </mxGeometry>
        </mxCell>
        <mxCell id="R6yvzvd_kbyUxVRJHQfj-16" value="" style="curved=1;endArrow=classic;html=1;rounded=0;strokeColor=#2D7600;fillColor=#60a917;exitX=0;exitY=0.5;exitDx=0;exitDy=0;strokeWidth=2;entryX=0.917;entryY=0.317;entryDx=0;entryDy=0;entryPerimeter=0;" edge="1" parent="1" source="R6yvzvd_kbyUxVRJHQfj-6" target="R6yvzvd_kbyUxVRJHQfj-5">
          <mxGeometry width="50" height="50" relative="1" as="geometry">
            <mxPoint x="300" y="550" as="sourcePoint" />
            <mxPoint x="150" y="530" as="targetPoint" />
            <Array as="points" />
          </mxGeometry>
        </mxCell>
        <mxCell id="R6yvzvd_kbyUxVRJHQfj-20" value="Ctrip IDC" style="text;html=1;align=center;verticalAlign=middle;resizable=0;points=[];autosize=1;strokeColor=none;fillColor=none;fontSize=16;" vertex="1" parent="1">
          <mxGeometry x="40" y="380" width="80" height="20" as="geometry" />
        </mxCell>
        <mxCell id="R6yvzvd_kbyUxVRJHQfj-21" value="AWS" style="text;html=1;align=center;verticalAlign=middle;resizable=0;points=[];autosize=1;strokeColor=none;fillColor=none;fontSize=16;" vertex="1" parent="1">
          <mxGeometry x="500" y="380" width="50" height="20" as="geometry" />
        </mxCell>
        <mxCell id="R6yvzvd_kbyUxVRJHQfj-22" value="" style="curved=1;endArrow=classic;html=1;rounded=0;exitX=1;exitY=0.5;exitDx=0;exitDy=0;strokeColor=#007FFF;strokeWidth=2;" edge="1" parent="1">
          <mxGeometry width="50" height="50" relative="1" as="geometry">
            <mxPoint x="10" y="850" as="sourcePoint" />
            <mxPoint x="110" y="850" as="targetPoint" />
            <Array as="points" />
          </mxGeometry>
        </mxCell>
        <mxCell id="R6yvzvd_kbyUxVRJHQfj-23" value="" style="curved=1;endArrow=classic;html=1;rounded=0;strokeColor=#B20000;fillColor=#e51400;strokeWidth=2;" edge="1" parent="1">
          <mxGeometry width="50" height="50" relative="1" as="geometry">
            <mxPoint x="10" y="881" as="sourcePoint" />
            <mxPoint x="110" y="881" as="targetPoint" />
            <Array as="points" />
          </mxGeometry>
        </mxCell>
        <mxCell id="R6yvzvd_kbyUxVRJHQfj-24" value="" style="curved=1;endArrow=classic;html=1;rounded=0;strokeColor=#2D7600;fillColor=#60a917;strokeWidth=2;" edge="1" parent="1">
          <mxGeometry width="50" height="50" relative="1" as="geometry">
            <mxPoint x="10" y="914" as="sourcePoint" />
            <mxPoint x="110" y="914" as="targetPoint" />
            <Array as="points" />
          </mxGeometry>
        </mxCell>
        <mxCell id="R6yvzvd_kbyUxVRJHQfj-25" value="Write Configuration" style="text;html=1;align=left;verticalAlign=middle;resizable=0;points=[];autosize=1;strokeColor=none;fillColor=none;fontSize=14;" vertex="1" parent="1">
          <mxGeometry x="120" y="840" width="140" height="20" as="geometry" />
        </mxCell>
        <mxCell id="R6yvzvd_kbyUxVRJHQfj-26" value="Run Lighthouse" style="text;html=1;align=left;verticalAlign=middle;resizable=0;points=[];autosize=1;strokeColor=none;fillColor=none;fontSize=14;" vertex="1" parent="1">
          <mxGeometry x="120" y="871" width="110" height="20" as="geometry" />
        </mxCell>
        <mxCell id="R6yvzvd_kbyUxVRJHQfj-27" value="Display Reports" style="text;html=1;align=left;verticalAlign=middle;resizable=0;points=[];autosize=1;strokeColor=none;fillColor=none;fontSize=14;" vertex="1" parent="1">
          <mxGeometry x="120" y="904" width="110" height="20" as="geometry" />
        </mxCell>
        <mxCell id="R6yvzvd_kbyUxVRJHQfj-29" value="Lamda" style="rounded=0;whiteSpace=wrap;html=1;fontSize=12;" vertex="1" parent="1">
          <mxGeometry x="570" y="595" width="70" height="20" as="geometry" />
        </mxCell>
        <mxCell id="R6yvzvd_kbyUxVRJHQfj-30" value="S3" style="rounded=0;whiteSpace=wrap;html=1;fontSize=12;" vertex="1" parent="1">
          <mxGeometry x="576" y="757" width="70" height="20" as="geometry" />
        </mxCell>
        <mxCell id="R6yvzvd_kbyUxVRJHQfj-31" value="Ctrip Database" style="rounded=0;whiteSpace=wrap;html=1;fontSize=12;" vertex="1" parent="1">
          <mxGeometry x="282" y="764" width="90" height="20" as="geometry" />
        </mxCell>
        <mxCell id="R6yvzvd_kbyUxVRJHQfj-32" value="Ctrip Serveless" style="rounded=0;whiteSpace=wrap;html=1;fontSize=12;" vertex="1" parent="1">
          <mxGeometry x="209" y="611" width="90" height="20" as="geometry" />
        </mxCell>
        <mxCell id="R6yvzvd_kbyUxVRJHQfj-34" value="Ctrip Ares" style="rounded=0;whiteSpace=wrap;html=1;fontSize=12;" vertex="1" parent="1">
          <mxGeometry x="60" y="551" width="90" height="20" as="geometry" />
        </mxCell>
        <mxCell id="R6yvzvd_kbyUxVRJHQfj-35" value="Read Config" style="shape=parallelogram;perimeter=parallelogramPerimeter;whiteSpace=wrap;html=1;fixedSize=1;" vertex="1" parent="1">
          <mxGeometry x="311" y="571" width="120" height="60" as="geometry" />
        </mxCell>
        <mxCell id="R6yvzvd_kbyUxVRJHQfj-36" value="Ctrip Serveless" style="rounded=0;whiteSpace=wrap;html=1;fontSize=12;" vertex="1" parent="1">
          <mxGeometry x="350" y="611" width="90" height="20" as="geometry" />
        </mxCell>
        <mxCell id="R6yvzvd_kbyUxVRJHQfj-38" value="" style="curved=1;endArrow=classic;html=1;rounded=0;strokeColor=#B20000;fillColor=#e51400;strokeWidth=2;verticalAlign=middle;exitX=0.066;exitY=1.103;exitDx=0;exitDy=0;exitPerimeter=0;" edge="1" parent="1" source="R6yvzvd_kbyUxVRJHQfj-36">
          <mxGeometry width="50" height="50" relative="1" as="geometry">
            <mxPoint x="360" y="630" as="sourcePoint" />
            <mxPoint x="300" y="690" as="targetPoint" />
            <Array as="points" />
          </mxGeometry>
        </mxCell>
        <mxCell id="R6yvzvd_kbyUxVRJHQfj-40" value="" style="curved=1;endArrow=classic;html=1;rounded=0;strokeColor=#B20000;fillColor=#e51400;strokeWidth=2;verticalAlign=middle;entryX=0.25;entryY=1;entryDx=0;entryDy=0;exitX=0.855;exitY=0;exitDx=0;exitDy=4.35;exitPerimeter=0;" edge="1" parent="1" source="R6yvzvd_kbyUxVRJHQfj-3" target="R6yvzvd_kbyUxVRJHQfj-36">
          <mxGeometry width="50" height="50" relative="1" as="geometry">
            <mxPoint x="320" y="690" as="sourcePoint" />
            <mxPoint x="310" y="700" as="targetPoint" />
            <Array as="points" />
          </mxGeometry>
        </mxCell>
        <mxCell id="R6yvzvd_kbyUxVRJHQfj-41" value="" style="curved=1;endArrow=classic;html=1;rounded=0;strokeColor=#B20000;fillColor=#e51400;strokeWidth=2;verticalAlign=middle;exitX=0.949;exitY=0.448;exitDx=0;exitDy=0;exitPerimeter=0;entryX=0.036;entryY=0.766;entryDx=0;entryDy=0;entryPerimeter=0;" edge="1" parent="1" source="R6yvzvd_kbyUxVRJHQfj-35" target="R6yvzvd_kbyUxVRJHQfj-11">
          <mxGeometry width="50" height="50" relative="1" as="geometry">
            <mxPoint x="459.9999999999997" y="572.68" as="sourcePoint" />
            <mxPoint x="520" y="509" as="targetPoint" />
            <Array as="points" />
          </mxGeometry>
        </mxCell>
        <mxCell id="R6yvzvd_kbyUxVRJHQfj-12" value="" style="curved=1;endArrow=classic;html=1;rounded=0;strokeColor=#B20000;exitX=0;exitY=0.5;exitDx=0;exitDy=0;fillColor=#e51400;strokeWidth=2;" edge="1" parent="1">
          <mxGeometry width="50" height="50" relative="1" as="geometry">
            <mxPoint x="530" y="488" as="sourcePoint" />
            <mxPoint x="430" y="580" as="targetPoint" />
            <Array as="points" />
          </mxGeometry>
        </mxCell>
        <mxCell id="R6yvzvd_kbyUxVRJHQfj-44" value="" style="curved=1;endArrow=classic;html=1;rounded=0;strokeColor=#B20000;entryX=0.5;entryY=0;entryDx=0;entryDy=0;fillColor=#e51400;strokeWidth=2;exitX=0.158;exitY=1.109;exitDx=0;exitDy=0;exitPerimeter=0;" edge="1" parent="1" source="R6yvzvd_kbyUxVRJHQfj-28" target="R6yvzvd_kbyUxVRJHQfj-8">
          <mxGeometry width="50" height="50" relative="1" as="geometry">
            <mxPoint x="590" y="625" as="sourcePoint" />
            <mxPoint x="590" y="700.0000000000002" as="targetPoint" />
            <Array as="points" />
          </mxGeometry>
        </mxCell>
      </root>
    </mxGraphModel>
  </diagram>
</mxfile>
